<svg width="30" height="30" viewBox="0 0 30 30" fill="none" xmlns="http://www.w3.org/2000/svg">
<path d="M27.2248 15.5067C27.2575 15.5103 27.2902 15.5103 27.3226 15.5067C27.4771 15.8851 27.7988 16.1696 28.1929 16.2768C28.5872 16.3838 29.0089 16.3011 29.3333 16.053C29.6578 15.8049 29.8481 15.4197 29.8481 15.0113C29.8481 14.6028 29.6578 14.2176 29.3333 13.9695C29.0088 13.7215 28.5872 13.6387 28.1929 13.7457C27.7988 13.8529 27.4771 14.1374 27.3226 14.5158C27.2902 14.5123 27.2575 14.5123 27.2248 14.5158H25.6237C25.5738 13.4953 25.3784 12.4874 25.0438 11.5222L26.5304 10.9322C26.5616 10.9207 26.591 10.9047 26.6181 10.8852C26.9012 11.1814 27.3061 11.3286 27.7134 11.2835C28.1206 11.2383 28.4837 11.006 28.6951 10.655C28.9063 10.3039 28.9418 9.87427 28.7911 9.49334C28.6403 9.11217 28.3205 8.82316 27.9262 8.71174C27.5321 8.60028 27.1081 8.67906 26.7803 8.92478C26.4523 9.17051 26.2579 9.55499 26.2541 9.96482C26.2216 9.97022 26.1899 9.97916 26.1596 9.99186L24.6798 10.5851C24.2292 9.60271 23.6339 8.69361 22.9134 7.88823L24.0595 6.76567C24.0794 6.74004 24.0973 6.71299 24.1133 6.68477C24.4874 6.85267 24.9182 6.83621 25.2782 6.6401C25.6383 6.44375 25.8856 6.09056 25.9472 5.68542C26.0088 5.28003 25.8771 4.86921 25.5917 4.57508C25.306 4.28115 24.8994 4.13748 24.4924 4.18686C24.0853 4.23647 23.7251 4.47327 23.5184 4.82742C23.3117 5.18131 23.2823 5.61161 23.4391 5.99043C23.4121 6.01066 23.3817 6.02077 23.3549 6.04428L22.2121 7.16684C21.4488 6.45621 20.5856 5.8611 19.65 5.40041L20.2906 3.93406C20.3038 3.90373 20.3139 3.87199 20.3209 3.83977C20.7291 3.84917 21.1185 3.66811 21.3744 3.34972C21.63 3.03157 21.7229 2.61207 21.6253 2.21561C21.5279 1.81915 21.2512 1.49065 20.877 1.32697C20.5029 1.16355 20.074 1.18353 19.7166 1.38152C19.3594 1.57929 19.1149 1.93223 19.0549 2.33595C18.9949 2.73993 19.1264 3.14886 19.4109 3.44184C19.393 3.46982 19.3773 3.49922 19.3637 3.52955L18.7231 4.9959C17.6659 4.59662 16.5518 4.369 15.4228 4.32175V2.70701C15.4264 2.67433 15.4264 2.64164 15.4228 2.60919C15.8009 2.4547 16.0857 2.13302 16.1927 1.73892C16.2999 1.34458 16.2171 0.92294 15.9691 0.598476C15.721 0.273976 15.3358 0.0837402 14.9274 0.0837402C14.5189 0.0837402 14.1337 0.273976 13.8856 0.598476C13.6373 0.922977 13.5548 1.34462 13.6618 1.73892C13.7688 2.13302 14.0535 2.45472 14.4316 2.60919C14.4281 2.64164 14.4281 2.67432 14.4316 2.70701V4.30838V4.30815C13.3027 4.35565 12.1886 4.58327 11.1314 4.9823L10.4843 3.53967C10.4706 3.50933 10.4546 3.47994 10.437 3.45196C10.7239 3.16203 10.8591 2.75475 10.8026 2.35053C10.746 1.94655 10.5042 1.59216 10.1487 1.39206C9.79319 1.19197 9.36452 1.16938 8.98991 1.33069C8.61509 1.492 8.33713 1.81909 8.23841 2.21487C8.13941 2.61062 8.23088 3.02989 8.48555 3.34851C8.74022 3.66737 9.12912 3.8489 9.5369 3.83973C9.54395 3.87195 9.5543 3.90369 9.56723 3.93403L10.2113 5.40038C9.28388 5.8575 8.42769 6.44703 7.66933 7.14983L6.503 6.02745C6.47596 6.00394 6.44563 5.99383 6.41882 5.9736V5.97337C6.57567 5.59455 6.54627 5.16444 6.33958 4.81036C6.13288 4.45646 5.7724 4.21943 5.36558 4.16979C4.95855 4.12041 4.55171 4.26409 4.26626 4.55825C3.98079 4.85242 3.84911 5.26299 3.91072 5.66835C3.97209 6.07375 4.2197 6.42696 4.57969 6.62303C4.93947 6.81914 5.37051 6.83584 5.74439 6.6677C5.76038 6.69592 5.77849 6.72296 5.79848 6.7486L6.94458 7.87116C6.23328 8.66715 5.64467 9.56469 5.19837 10.5344L3.71835 9.94443C3.68731 9.93056 3.65439 9.92139 3.62077 9.91739C3.61983 9.50894 3.42842 9.12399 3.10297 8.87664C2.77777 8.62949 2.35592 8.5479 1.96181 8.65607C1.56794 8.76447 1.24697 9.05017 1.09364 9.429C0.940561 9.80782 0.972544 10.2362 1.18065 10.588C1.38851 10.9398 1.74853 11.1745 2.1544 11.2227C2.56003 11.2711 2.9652 11.1275 3.24993 10.8345C3.27768 10.8528 3.30708 10.8686 3.33741 10.8815L4.81742 11.475C4.47552 12.4523 4.27776 13.4745 4.23097 14.5088H2.63646C2.60377 14.5053 2.57109 14.5053 2.53864 14.5088C2.38414 14.1307 2.06246 13.846 1.66836 13.739C1.27402 13.6318 0.852384 13.7145 0.52792 13.9626C0.203419 14.2107 0.0131836 14.5959 0.0131836 15.0043C0.0131836 15.4128 0.203419 15.798 0.52792 16.046C0.85242 16.2944 1.27407 16.3769 1.66836 16.2699C2.06247 16.1629 2.38417 15.8781 2.53864 15.5C2.57109 15.5036 2.60377 15.5036 2.63646 15.5H4.23783H4.23759C4.28838 16.5159 4.48379 17.5192 4.81746 18.48L3.33089 19.0733C3.29891 19.0844 3.26834 19.0992 3.23989 19.1171C2.9563 18.8231 2.55183 18.678 2.14598 18.7248C1.74012 18.7714 1.37942 19.0047 1.16988 19.3553C0.960594 19.7061 0.926733 20.1343 1.07817 20.5138C1.2296 20.8931 1.54917 21.1802 1.94255 21.2903C2.33595 21.4003 2.75804 21.3208 3.08443 21.0751C3.41082 20.8296 3.60411 20.4459 3.60716 20.0374C3.64008 20.0337 3.67183 20.0245 3.70169 20.0104L5.19182 19.4204H5.19158C5.64166 20.4031 6.23703 21.3122 6.95802 22.1173L5.81192 23.2399C5.79193 23.2655 5.77406 23.2925 5.75807 23.3208C5.38396 23.1529 4.95317 23.1693 4.59313 23.3657C4.23312 23.5618 3.98574 23.915 3.92415 24.3203C3.86255 24.7255 3.99423 25.1363 4.27969 25.4304C4.5654 25.7246 4.97196 25.8683 5.37902 25.8187C5.78606 25.7693 6.1463 25.5323 6.35301 25.1784C6.55971 24.8242 6.5891 24.3939 6.43226 24.0151C6.46236 24.0005 6.49057 23.9824 6.51644 23.9613L7.65923 22.8387C8.4197 23.5474 9.27938 24.1414 10.2113 24.6018L9.57074 26.0715C9.5571 26.1018 9.54699 26.1335 9.5404 26.166C9.1329 26.1578 8.74489 26.34 8.49116 26.6586C8.2372 26.9775 8.14643 27.3963 8.24543 27.7915C8.34443 28.1868 8.6219 28.5134 8.99628 28.6748C9.37039 28.8361 9.79835 28.8137 10.1539 28.6146C10.5092 28.4152 10.7514 28.0617 10.809 27.6582C10.8666 27.2549 10.7328 26.8477 10.4471 26.557C10.4659 26.5314 10.4829 26.5043 10.4977 26.4761L11.1382 25.0065V25.0062C12.1954 25.4055 13.3096 25.6331 14.4385 25.6804V27.2818C14.435 27.3142 14.435 27.3471 14.4385 27.3796C14.0604 27.5338 13.7756 27.8557 13.6686 28.2498C13.5614 28.644 13.6442 29.0656 13.8923 29.39C14.1403 29.7145 14.5255 29.905 14.934 29.905C15.3424 29.905 15.7276 29.7145 15.9757 29.39C16.224 29.0655 16.3065 28.6439 16.1995 28.2498C16.0926 27.8558 15.8078 27.5338 15.4297 27.3796C15.4332 27.3471 15.4332 27.3142 15.4297 27.2818V25.694C16.5586 25.6465 17.6728 25.4189 18.7299 25.0199L19.3771 26.4625C19.3912 26.4924 19.4081 26.5206 19.4276 26.5469C19.1372 26.8357 18.9983 27.2434 19.0521 27.6493C19.1059 28.0554 19.3463 28.4128 19.702 28.616C20.0578 28.8189 20.4879 28.8441 20.8648 28.6839C21.2418 28.5238 21.5223 28.1967 21.623 27.7998C21.7238 27.4028 21.6335 26.9817 21.3786 26.661C21.1237 26.3404 20.7339 26.1573 20.3245 26.166C20.3179 26.1335 20.3078 26.1018 20.2941 26.0714L19.6501 24.6018C20.5775 24.1446 21.4337 23.5551 22.192 22.8523L23.3584 23.9747C23.3842 23.9959 23.4127 24.014 23.4425 24.0288C23.2857 24.4076 23.3151 24.8377 23.5218 25.1918C23.7285 25.5457 24.0889 25.7827 24.4958 25.8324C24.9028 25.8817 25.3096 25.7381 25.5951 25.4439C25.8806 25.1497 26.0122 24.7392 25.9506 24.3338C25.8893 23.9284 25.6417 23.5752 25.2817 23.3791C24.9219 23.183 24.4908 23.1663 24.117 23.3344C24.101 23.3062 24.0829 23.2792 24.0629 23.2536L22.9168 22.131C23.6269 21.3362 24.2143 20.4396 24.6597 19.4712L26.143 20.0577C26.174 20.0716 26.207 20.0807 26.2406 20.0847C26.2415 20.4932 26.4329 20.8781 26.7584 21.1255C27.0836 21.3726 27.5054 21.4542 27.8995 21.3461C28.2934 21.2376 28.6144 20.9519 28.7677 20.5731C28.9208 20.1943 28.8888 19.7659 28.6807 19.4141C28.4728 19.0623 28.1128 18.8276 27.707 18.7794C27.3013 18.731 26.8962 18.8746 26.6114 19.1676C26.5837 19.1493 26.5543 19.1335 26.5239 19.1206L25.0439 18.5306C25.3854 17.5529 25.5829 16.5309 25.6304 15.4966L27.2248 15.5067ZM18.3728 7.70274C18.9611 7.70274 19.5252 7.93624 19.9412 8.35221C20.3572 8.76818 20.5909 9.33252 20.5909 9.92089C20.5909 10.509 20.3572 11.0734 19.9412 11.4893C19.5252 11.9053 18.9611 12.139 18.3728 12.139C17.7844 12.139 17.2203 11.9053 16.8043 11.4893C16.3883 11.0734 16.1546 10.509 16.1546 9.92089C16.1537 9.33232 16.3872 8.76751 16.8033 8.35131C17.2196 7.93509 17.7841 7.70184 18.3727 7.7028L18.3728 7.70274ZM15.096 17.3843C14.5079 17.3843 13.9435 17.1506 13.5275 16.7346C13.1115 16.3186 12.8778 15.7543 12.8778 15.1659C12.8778 14.5778 13.1115 14.0134 13.5275 13.5975C13.9435 13.1815 14.5078 12.9477 15.096 12.9477C15.6843 12.9477 16.2486 13.1815 16.6646 13.5975C17.0806 14.0134 17.3144 14.5778 17.3144 15.1659C17.3144 15.7542 17.0806 16.3186 16.6646 16.7346C16.2487 17.1506 15.6843 17.3843 15.096 17.3843ZM11.8162 7.70274C12.4043 7.70274 12.9686 7.93624 13.3846 8.35221C13.8006 8.76818 14.0343 9.33252 14.0343 9.92089C14.0343 10.509 13.8006 11.0734 13.3846 11.4893C12.9686 11.9053 12.4043 12.139 11.8162 12.139C11.2278 12.139 10.6635 11.9053 10.2475 11.4893C9.8315 11.0734 9.59777 10.509 9.59777 9.92089C9.59777 9.33256 9.8315 8.76823 10.2475 8.35221C10.6635 7.93623 11.2278 7.70274 11.8162 7.70274ZM6.32128 15.166C6.32128 14.577 6.55549 14.0121 6.97262 13.5962C7.38953 13.18 7.9548 12.9467 8.54389 12.9481C9.13294 12.9493 9.69728 13.1847 10.1126 13.6025C10.5278 14.0204 10.7599 14.5861 10.7576 15.1752C10.7552 15.7642 10.5187 16.3281 10.0999 16.7426C9.68132 17.157 9.11511 17.3879 8.52601 17.3843C7.93979 17.3815 7.37853 17.1466 6.96509 16.7309C6.55194 16.3149 6.32032 15.7525 6.32128 15.166ZM11.8162 22.2994C11.2278 22.2994 10.6635 22.0659 10.2475 21.6499C9.8315 21.234 9.59777 20.6696 9.59777 20.0813C9.59777 19.4932 9.8315 18.9288 10.2475 18.5128C10.6635 18.0968 11.2278 17.8631 11.8162 17.8631C12.4043 17.8631 12.9686 18.0968 13.3846 18.5128C13.8006 18.9288 14.0343 19.4931 14.0343 20.0813C14.0343 20.6696 13.8006 21.2339 13.3846 21.6499C12.9686 22.0659 12.4043 22.2994 11.8162 22.2994ZM18.3729 22.2994H18.3726C17.7843 22.2994 17.2202 22.0659 16.8042 21.6499C16.3882 21.234 16.1545 20.6696 16.1545 20.0813C16.1545 19.4932 16.3882 18.9288 16.8042 18.5128C17.2202 18.0968 17.7843 17.8631 18.3726 17.8631C18.961 17.8631 19.5251 18.0968 19.9411 18.5128C20.3571 18.9288 20.5908 19.4931 20.5908 20.0813C20.5908 20.6696 20.3571 21.2339 19.9411 21.6499C19.5251 22.0659 18.961 22.2994 18.3726 22.2994H18.3729ZM21.3357 17.3846C20.7476 17.3846 20.1833 17.1509 19.7673 16.7349C19.3513 16.3189 19.1176 15.7546 19.1176 15.1662C19.1176 14.5781 19.3513 14.0137 19.7673 13.5978C20.1833 13.1818 20.7476 12.948 21.3357 12.948C21.9241 12.948 22.4884 13.1818 22.9044 13.5978C23.3204 14.0137 23.5539 14.5781 23.5539 15.1662C23.5539 15.7545 23.3204 16.3189 22.9044 16.7349C22.4884 17.1509 21.9241 17.3846 21.3357 17.3846Z" fill="#9D4C6C"/>
</svg>
