<svg width="42" height="42" viewBox="0 0 42 42" fill="none" xmlns="http://www.w3.org/2000/svg">
<path d="M22.718 20.3126C24.3536 18.8504 26.5237 17.9695 28.9007 17.9695C30.3371 17.9695 31.6734 18.3089 32.8689 18.8508L34.3891 17.4678C36.3894 15.3586 36.0753 11.603 33.5759 8.91989C31.0914 6.20441 27.3586 5.60541 25.0903 7.46793L16.5036 15.4089C17.7894 15.9031 19.0206 16.5856 20.1147 17.5499C21.4546 18.6078 22.2997 19.7457 22.7181 20.3122L22.718 20.3126Z" fill="#E09F1F"/>
<path d="M21.8088 21.2124C21.5158 20.7899 20.6424 19.6086 19.3133 18.4787C18.1073 17.4674 16.8294 16.7675 15.5184 16.3588L6.73269 24.4799C4.52277 26.5276 4.77192 30.4526 7.38962 33.2117C9.93179 35.9668 13.8028 36.5446 16.002 34.4895L20.0538 30.7271C19.6962 29.7056 19.4795 28.5999 19.4795 27.4519C19.4793 25.0544 20.3426 22.8516 21.8091 21.2121L21.8088 21.2124Z" fill="#E09F1F"/>
<path d="M36.8301 25.032L21.4835 31.1131C23.3541 34.9192 27.8857 36.7287 31.9552 35.1404C35.9853 33.5218 38.0756 29.1242 36.83 25.0323L36.8301 25.032Z" fill="#E09F1F"/>
<path d="M25.8704 19.7202C21.8265 21.3059 19.7138 25.7296 20.9603 29.8132L36.3174 23.7321C34.4352 19.9227 29.9042 18.1207 25.8704 19.7201V19.7202Z" fill="#E09F1F"/>
</svg>
