<svg width="25" height="33" viewBox="0 0 25 33" fill="none" xmlns="http://www.w3.org/2000/svg">
<path d="M15.4342 15.077L13.9544 12.9021L12.4917 16.1394C12.4098 16.323 12.2519 16.432 12.0722 16.432L12.0703 16.4322C11.8906 16.4322 11.7329 16.3244 11.6509 16.1417L10.6154 13.8871L9.99522 15.0333C9.88029 15.248 9.63067 15.3967 9.38703 15.3967H6.74808C6.53937 15.3967 6.37158 15.5654 6.37158 15.7732C6.37158 15.981 6.53938 16.1506 6.74808 16.1506H9.23645C9.97545 16.9843 11.0718 17.7394 12.6373 18.2796C14.6653 17.5806 15.9116 16.5251 16.6005 15.3968H16.0383C15.8107 15.3986 15.5611 15.2669 15.4342 15.077L15.4342 15.077Z" fill="#009DC7"/>
<path d="M18.9923 13.9007H17.2038C17.5944 12.0606 16.7706 10.347 15.6452 9.94454C13.6253 9.22255 12.6376 11.049 12.6376 11.049C12.6376 11.049 11.6511 9.22261 9.63005 9.94454C8.353 10.4008 7.46531 12.5437 8.29393 14.6446H9.34943L10.2212 13.031C10.3132 12.8602 10.4729 12.7604 10.6506 12.7664C10.8283 12.7724 10.982 12.8813 11.0641 13.059L12.0685 15.2479L13.4686 12.1516C13.5444 11.9817 13.6931 11.8709 13.8639 11.856C14.0377 11.8381 14.2013 11.9249 14.3043 12.0796L16.0558 14.6537H18.9915C19.1981 14.6537 19.368 14.4839 19.368 14.2763C19.3678 14.0685 19.199 13.9007 18.9924 13.9007L18.9923 13.9007Z" fill="#009DC7"/>
<path d="M22.7818 4.32568H18.5539L18.5541 3.51177C18.5541 2.88058 18.0408 2.36847 17.4097 2.36847H16.4192C15.7253 1.12426 14.3973 0.281639 12.8715 0.281639C11.3448 0.281639 10.0167 1.12449 9.32165 2.36847H8.33122C7.69914 2.36847 7.1868 2.88081 7.1868 3.51177V4.3245L2.95706 4.32473C1.80664 4.32473 0.870225 5.26138 0.870225 6.41156L0.869995 30.1485C0.869995 31.2989 1.80664 32.2353 2.95683 32.2353H22.7819C23.9323 32.2353 24.8687 31.2986 24.8687 30.1485L24.869 6.41215C24.869 5.26108 23.9323 4.32532 22.7819 4.32532L22.7818 4.32568ZM2.9573 30.1485V6.41222H7.18522V7.55158C7.18522 8.18366 7.69848 8.69488 8.32964 8.69488H17.4084C18.0405 8.69488 18.5528 8.18369 18.5528 7.55158L18.5523 6.41222H22.7803L22.7823 30.1485H2.9573Z" fill="#009DC7"/>
<path d="M14.3838 21.4443C14.3838 21.567 14.2841 21.667 14.1611 21.667L5.83967 21.6668C5.71693 21.6668 5.61694 21.567 5.61694 21.4441V20.5543C5.61694 20.4316 5.7167 20.3316 5.83967 20.3316H14.1617C14.2844 20.3316 14.3844 20.4314 14.3844 20.5543L14.3838 21.4443Z" fill="#009DC7"/>
<path d="M17.9409 22.3869C17.6993 22.3869 17.4745 22.272 17.3207 22.0695L15.5892 19.8L16.5429 19.072L17.8999 20.8513L20.1177 17.2107L21.1413 17.8347L18.604 22.0035C18.4631 22.2332 18.2376 22.3729 17.9799 22.3869C17.9659 22.3858 17.9549 22.3869 17.9409 22.3869L17.9409 22.3869Z" fill="#009DC7"/>
<path d="M14.3838 27.4444C14.3838 27.5672 14.2841 27.666 14.1611 27.666L5.83967 27.6662C5.71693 27.6662 5.61694 27.5674 5.61694 27.4447V26.554C5.61694 26.4312 5.7167 26.3312 5.83967 26.3312H14.1617C14.2844 26.3312 14.3844 26.431 14.3844 26.554L14.3838 27.4444Z" fill="#009DC7"/>
<path d="M17.9409 28.3865C17.6993 28.3865 17.4745 28.2715 17.3207 28.069L15.5892 25.7995L16.5429 25.0716L17.8999 26.85L20.1177 23.2093L21.1413 23.8334L18.604 28.0033C18.4631 28.232 18.2376 28.3727 17.9799 28.3867C17.9659 28.3865 17.9549 28.3865 17.9409 28.3865L17.9409 28.3865Z" fill="#009DC7"/>
</svg>
