<svg width="26" height="36" viewBox="0 0 26 36" fill="none" xmlns="http://www.w3.org/2000/svg">
<path d="M19.7025 3.11209C17.8201 1.18583 15.3514 0.221924 12.8824 0.221924C10.4136 0.221924 7.94617 1.18583 6.06226 3.11209V7.79991H19.7025V3.11209ZM15.1557 4.76867H13.6402V6.28416H12.1247V4.76867H10.6093L10.609 3.25317H12.1245L12.1247 1.73768H13.6402V3.25317H15.1557V4.76867Z" fill="#1C6BA4"/>
<path d="M10.2621 17.8833C11.0685 18.2197 11.9537 18.409 12.8826 18.409C13.8118 18.409 14.6968 18.2195 15.5031 17.883C17.9675 16.8557 19.7028 14.426 19.7028 11.5889V9.31555H6.0625V11.5889C6.0625 14.4261 7.79644 16.8557 10.2621 17.8833V17.8833Z" fill="#1C6BA4"/>
<path d="M19.7024 19.9247V29.1579C20.5831 29.4715 21.2179 30.3037 21.2179 31.2917C21.2179 32.5466 20.1995 33.5651 18.9446 33.5651C17.6899 33.5651 16.6715 32.5466 16.6715 31.2917C16.6715 30.3035 17.3065 29.4715 18.1869 29.1579V19.9247H16.6715C16.6715 21.5981 14.9756 22.956 12.8826 22.956C10.7893 22.9557 9.09347 21.5978 9.09347 19.9247H7.57797V23.0331C9.30586 23.3848 10.6092 24.914 10.6092 26.7449V29.7761C10.6092 30.8598 10.1332 31.895 9.30431 32.6209C9.16019 32.7449 8.98284 32.8071 8.80548 32.8071C8.59489 32.8071 8.38405 32.7193 8.23562 32.5481C7.95982 32.2329 7.99306 31.7539 8.30844 31.4781C8.80701 31.0429 9.09347 30.4215 9.09347 29.7758V26.7446C9.09347 25.4914 8.0735 24.4715 6.8201 24.4715C5.56669 24.4715 4.54673 25.4914 4.54673 26.7449V29.7761C4.54673 30.4218 4.83318 31.0432 5.33325 31.4781C5.64838 31.7539 5.68035 32.2329 5.40607 32.5481C5.13027 32.8632 4.64968 32.8936 4.33765 32.6209C3.50696 31.8947 3.03124 30.8595 3.03124 29.7758V26.7446C3.03124 24.9137 4.3346 23.3846 6.06249 23.0328L6.06223 19.9247C2.71434 19.9247 0 22.639 0 25.9869V35.0804H25.7651V25.9869C25.7651 22.639 23.0505 19.9247 19.7026 19.9247L19.7024 19.9247Z" fill="#1C6BA4"/>
</svg>
