<svg width="22" height="22" viewBox="0 0 22 22" fill="none" xmlns="http://www.w3.org/2000/svg">
<path d="M11.3793 3.03454V1.89664C11.3793 1.76789 11.389 1.64129 11.407 1.5173H11.3793C10.961 1.5173 10.6208 1.85767 10.6208 2.27586C10.6206 2.69416 10.961 3.03453 11.3793 3.03453V3.03454Z" fill="#E09F1F"/>
<path d="M2.27582 5.31025H6.06884V6.06881H2.27582V5.31025Z" fill="#E09F1F"/>
<path d="M12.882 6.02288C13.1301 5.95889 13.3577 5.82953 13.5437 5.64354L14.0341 5.15326L14.7927 5.91182L15.5512 5.15326L16.0417 5.6437C16.2277 5.82969 16.4552 5.95905 16.7034 6.02304C16.7474 5.36761 16.8934 4.72695 17.1389 4.11311L17.4478 3.34061V1.89657C17.4478 0.850759 16.5971 0 15.5513 0H14.034C12.9882 0 12.1375 0.850759 12.1375 1.89657V3.34077L12.4464 4.11296C12.692 4.72679 12.838 5.36749 12.882 6.02288H12.882Z" fill="#E09F1F"/>
<path d="M18.2067 3.03454C18.625 3.03454 18.9653 2.69417 18.9653 2.27599C18.9653 1.85768 18.6249 1.51743 18.2067 1.51743H18.1791C18.1969 1.64142 18.2067 1.76787 18.2067 1.89678V3.03454Z" fill="#E09F1F"/>
<path d="M1.13792 7.58605H7.20668C7.41585 7.58605 7.58603 7.41587 7.58603 7.20671L7.58588 4.17239C7.58588 3.96323 7.41569 3.79304 7.20653 3.79304H1.13777C0.928606 3.79304 0.758423 3.96323 0.758423 4.17239V7.20686C0.758423 7.41603 0.928606 7.58606 1.13777 7.58606L1.13792 7.58605ZM1.51727 4.55174H6.82743V6.82753H1.51727V4.55174Z" fill="#E09F1F"/>
<path d="M0 20.4826V21.9998H9.16365C9.12483 21.8862 9.10334 21.7645 9.10334 21.6379C9.10334 21.2624 9.28995 20.9139 9.60238 20.7057L9.93692 20.4827L0 20.4826Z" fill="#E09F1F"/>
<path d="M19.5625 21.3366L19.0313 20.9825C18.7675 20.8064 18.588 20.5261 18.5386 20.213L17.6542 14.6121C17.3104 14.958 16.8347 15.1724 16.3099 15.1724C16.1345 15.1724 15.9651 15.1477 15.8038 15.1031L17.2371 21.4095C17.3161 21.7572 17.6202 22 17.9769 22H19.3619C19.5613 22 19.7237 21.8376 19.7237 21.6382C19.7237 21.5168 19.6634 21.4041 19.5624 21.3368L19.5625 21.3366Z" fill="#E09F1F"/>
<path d="M11.9313 14.6122L11.0469 20.2131C10.9975 20.5261 10.8179 20.8065 10.5541 20.9824L10.0229 21.3365C9.92191 21.4038 9.86176 21.5164 9.86176 21.6376C9.86176 21.8371 10.0241 21.9996 10.2236 21.9996H11.6086C11.965 21.9996 12.2693 21.7569 12.3484 21.4091L13.7816 15.1027C13.6202 15.1475 13.4508 15.1722 13.2754 15.1722C12.7506 15.1722 12.275 14.9578 11.9312 14.6121L11.9313 14.6122Z" fill="#E09F1F"/>
<path d="M21.6186 11.3279L20.9715 10.8964L18.9256 7.97371C18.5588 7.44964 18.0149 7.07569 17.3944 6.92051L17.0175 6.82629C16.4679 6.81386 15.9517 6.60239 15.5524 6.22534L14.7929 6.98465L14.0336 6.22534C13.6343 6.60239 13.1181 6.81384 12.5686 6.82629L12.1917 6.92051C11.5711 7.07565 11.0272 7.44964 10.6605 7.97371L8.61457 10.8964L7.96743 11.3279C7.7288 11.4871 7.58624 11.7533 7.58624 12.0403C7.58609 12.5124 7.97019 12.8964 8.44223 12.8964C8.88049 12.8964 9.26077 12.5995 9.36712 12.1744L9.52334 11.5492L12.8965 8.65793V11.021C12.8965 11.314 12.8273 11.6072 12.6962 11.8692L12.2675 12.7269C12.1826 12.8963 12.1378 13.0861 12.1378 13.2756C12.1378 13.9031 12.6483 14.4135 13.2757 14.4135C13.9032 14.4135 14.4136 13.903 14.4136 13.2756V12.8963H15.1721V13.2756C15.1721 13.9031 15.6827 14.4135 16.31 14.4135C16.9375 14.4135 17.4479 13.903 17.4479 13.2756C17.4479 13.086 17.4031 12.8963 17.3184 12.7267L16.8896 11.869C16.7587 11.6072 16.6895 11.314 16.6895 11.021V8.65793L20.0627 11.5491L20.2189 12.1743C20.3252 12.5993 20.7055 12.8963 21.1438 12.8963C21.6157 12.8964 21.9998 12.5123 21.9998 12.0403C21.9998 11.7535 21.8572 11.4871 21.6186 11.3279H21.6186Z" fill="#E09F1F"/>
<path d="M4.55158 8.34464H3.79291V13.1186L4.55158 12.36V8.34464Z" fill="#E09F1F"/>
<path d="M3.79297 19.724H4.55164V13.4328L3.79297 14.1915V19.724Z" fill="#E09F1F"/>
</svg>
